<?xml version="1.0" standalone="no"?>
<!DOCTYPE svg PUBLIC "-//W3C//DTD SVG 20010904//EN"
 "http://www.w3.org/TR/2001/REC-SVG-20010904/DTD/svg10.dtd">
<svg version="1.0" xmlns="http://www.w3.org/2000/svg"
 width="1500.000000pt" height="1500.000000pt" viewBox="0 0 1500.000000 1500.000000"
 preserveAspectRatio="xMidYMid meet">

<g transform="translate(0.000000,1500.000000) scale(0.100000,-0.100000)"
fill="#000000" stroke="none">
<path d="M4705 9213 c-48 -11 -104 -36 -109 -50 -16 -40 26 -66 322 -197 305
-136 507 -254 731 -430 107 -84 295 -262 396 -376 54 -62 56 -62 24 -16 -118
178 -355 422 -556 572 -65 49 -216 152 -337 229 -120 77 -231 152 -247 167
-53 48 -35 77 58 94 66 12 63 12 -97 12 -91 0 -174 -2 -185 -5z"/>
<path d="M4265 9179 c-316 -55 -677 -214 -1050 -462 -609 -406 -841 -1020
-619 -1639 26 -72 100 -228 108 -228 3 0 -15 42 -39 93 -140 302 -165 624 -69
929 51 163 137 304 262 432 77 79 135 121 193 141 111 39 132 7 159 -245 14
-132 43 -276 76 -383 26 -80 124 -311 130 -304 2 1 -7 32 -20 67 -22 61 -23
73 -16 196 13 211 56 356 147 503 133 213 367 362 676 428 114 25 449 24 592
0 190 -33 427 -102 689 -201 38 -15 71 -25 72 -23 6 6 -243 117 -366 163 -447
171 -875 201 -1216 85 -254 -85 -428 -235 -530 -456 -65 -140 -77 -207 -78
-412 0 -101 -2 -183 -3 -183 -7 0 -34 153 -41 235 -23 244 37 484 161 652 182
245 543 357 1003 312 398 -39 778 -183 1217 -462 92 -58 165 -102 162 -98 -3
5 -58 50 -124 100 -387 295 -740 457 -1231 566 -222 49 -276 64 -294 84 -32
35 27 78 154 112 88 23 35 23 -105 -2z"/>
<path d="M5216 9181 c-37 -8 -56 -24 -56 -48 0 -24 67 -88 250 -237 401 -327
646 -623 774 -936 45 -109 46 -86 2 45 -92 274 -236 485 -565 828 -84 87 -165
177 -181 199 -52 71 -35 107 52 109 35 1 27 4 -47 19 -123 24 -183 30 -229 21z"/>
<path d="M5643 9074 c-19 -8 -16 -49 6 -92 11 -20 65 -95 120 -167 221 -286
344 -494 412 -695 45 -135 61 -230 62 -370 0 -107 2 -118 10 -75 16 86 12 302
-7 390 -40 184 -113 358 -248 591 -78 135 -141 253 -152 291 -5 15 -1 28 14
43 18 18 29 20 68 15 42 -5 36 -1 -48 31 -91 35 -205 53 -237 38z"/>
<path d="M6062 8898 c-25 -25 -10 -84 79 -305 101 -252 146 -411 157 -553 9
-122 -1 -267 -23 -350 -23 -83 -84 -217 -130 -284 l-36 -51 39 43 c155 173
238 456 213 724 -11 107 -17 141 -76 398 -36 162 -43 238 -23 258 16 16 61 15
105 -3 53 -22 53 -19 -2 21 -122 88 -268 137 -303 102z"/>
<path d="M4335 8669 c-38 -5 -113 -20 -165 -34 -376 -95 -632 -326 -745 -671
-35 -107 -31 -114 10 -16 125 305 345 505 676 615 253 85 553 98 937 41 57 -9
106 -14 108 -11 5 5 -177 44 -296 64 -108 17 -434 25 -525 12z"/>
<path d="M6444 8615 c-16 -25 -17 -41 -4 -265 13 -248 10 -329 -17 -465 -70
-359 -311 -645 -712 -846 -116 -59 -321 -130 -701 -244 -344 -103 -440 -177
-400 -308 18 -61 125 -163 225 -214 103 -53 230 -97 358 -125 88 -19 133 -22
332 -23 200 0 245 3 341 22 330 67 620 218 840 437 119 119 192 218 261 357
45 92 114 283 112 315 0 11 -9 -8 -18 -41 -88 -295 -290 -549 -572 -720 -300
-182 -711 -250 -1022 -171 -126 32 -194 64 -250 115 -82 76 -86 140 -14 218
58 63 97 88 331 213 367 195 500 286 657 447 234 241 334 464 384 863 9 69 21
145 26 170 11 50 43 90 71 90 55 0 168 -99 237 -207 41 -66 53 -70 15 -5 -57
99 -111 170 -190 252 -91 94 -172 149 -232 157 -35 5 -42 2 -58 -22z"/>
<path d="M4598 8613 c12 -2 30 -2 40 0 9 3 -1 5 -23 4 -22 0 -30 -2 -17 -4z"/>
<path d="M10460 8145 l0 -475 95 0 95 0 0 475 0 475 -95 0 -95 0 0 -475z"/>
<path d="M4385 8595 c-350 -56 -625 -204 -817 -439 -32 -39 -21 -31 48 35 233
224 469 334 854 399 91 16 98 18 50 18 -30 0 -91 -6 -135 -13z"/>
<path d="M11970 8455 l0 -105 -100 0 -100 0 0 -75 0 -75 99 0 99 0 4 -197 c4
-215 7 -231 65 -284 45 -42 83 -49 269 -49 l174 0 0 75 0 75 -139 0 c-188 0
-181 -8 -181 216 l0 164 145 0 145 0 0 75 0 75 -145 0 -145 0 0 105 0 105 -95
0 -95 0 0 -105z"/>
<path d="M9620 8349 c-30 -5 -84 -24 -120 -41 -118 -60 -166 -157 -158 -322 6
-114 32 -181 95 -236 82 -71 129 -83 362 -88 222 -4 294 4 371 43 93 48 141
117 161 229 38 222 -75 385 -288 416 -82 12 -346 11 -423 -1z m440 -164 c20
-12 45 -39 58 -65 20 -39 23 -56 19 -128 -4 -88 -16 -115 -71 -156 -25 -19
-43 -21 -219 -24 -184 -2 -194 -1 -231 20 -50 29 -76 73 -83 141 -11 111 33
203 110 226 18 6 111 9 207 8 155 -2 179 -4 210 -22z"/>
<path d="M8370 7860 l0 -490 95 0 95 0 0 149 0 149 213 4 c238 4 285 15 364
82 77 66 116 202 93 326 -20 111 -68 178 -159 225 -75 37 -147 45 -433 45
l-268 0 0 -490z m596 314 c55 -41 69 -70 72 -152 3 -65 0 -84 -20 -121 -39
-75 -71 -85 -280 -89 l-178 -4 0 197 0 196 189 -3 c173 -3 192 -5 217 -24z"/>
<path d="M10850 8275 l0 -75 300 0 301 0 24 -25 c17 -16 25 -35 25 -60 l0 -35
-290 0 c-311 0 -335 -3 -388 -53 -42 -39 -56 -77 -56 -152 1 -75 15 -114 56
-152 55 -51 69 -53 483 -53 l385 0 0 253 c0 267 -6 310 -46 364 -44 58 -83 63
-461 63 l-333 0 0 -75z m650 -400 l0 -55 -257 2 -257 3 -15 26 c-13 24 -13 29
2 53 l17 26 255 0 255 0 0 -55z"/>
<path d="M8185 8211 c-3 -5 -2 -12 3 -15 5 -3 9 1 9 9 0 17 -3 19 -12 6z"/>
<path d="M2892 8135 c-117 -51 -233 -226 -284 -432 -19 -74 -22 -115 -22 -258
1 -157 3 -179 31 -285 96 -363 327 -680 660 -907 94 -65 203 -128 203 -119 0
3 -21 18 -47 33 -174 101 -396 306 -515 473 -74 104 -174 297 -207 400 -51
159 -66 381 -36 524 42 196 156 329 270 312 70 -11 141 -72 370 -317 115 -123
213 -226 218 -228 5 -2 -28 43 -72 100 -45 58 -126 183 -182 284 -176 310
-193 338 -240 387 -50 53 -83 61 -147 33z"/>
<path d="M6792 8134 c-27 -19 -69 -100 -112 -219 -97 -267 -242 -502 -426
-690 -38 -39 -138 -135 -223 -215 -164 -154 -236 -240 -247 -294 -26 -140 223
-204 508 -132 176 45 331 132 462 261 278 273 378 608 291 980 -32 141 -108
275 -174 310 -38 19 -51 19 -79 -1z"/>
<path d="M2938 7628 c-153 -40 -216 -314 -138 -598 29 -102 116 -281 192 -392
143 -209 387 -421 648 -561 219 -118 456 -195 728 -237 170 -26 196 -24 46 5
-467 88 -838 277 -1135 578 -243 245 -387 569 -349 784 22 131 85 196 189 196
88 0 156 -25 425 -159 138 -68 240 -116 226 -107 -13 10 -135 99 -270 197
-135 99 -275 199 -312 223 -103 67 -182 89 -250 71z"/>
<path d="M7092 7340 c0 -14 2 -19 5 -12 2 6 2 18 0 25 -3 6 -5 1 -5 -13z"/>
<path d="M7081 7294 c0 -11 3 -14 6 -6 3 7 2 16 -1 19 -3 4 -6 -2 -5 -13z"/>
<path d="M3232 7179 c-219 -111 -67 -556 294 -860 242 -203 519 -345 828 -424
234 -59 323 -70 596 -70 227 0 256 2 392 28 147 28 244 53 168 42 -19 -3 -82
-12 -140 -21 -126 -20 -433 -22 -565 -5 -395 51 -759 195 -1030 406 -136 106
-262 250 -323 371 -25 49 -52 150 -52 195 0 56 36 116 88 146 41 24 59 28 147
31 85 3 141 -4 380 -47 154 -27 281 -48 282 -47 2 1 -34 13 -80 26 -45 12
-233 72 -417 133 -314 103 -341 111 -430 114 -82 4 -101 1 -138 -18z"/>
<path d="M9463 7053 c-21 -4 -23 -10 -23 -59 0 -53 0 -54 -30 -54 -28 0 -30
-2 -30 -40 0 -38 2 -40 30 -40 l30 0 0 -171 c0 -190 9 -228 61 -254 36 -19
112 -19 149 0 29 15 29 15 13 49 -14 31 -18 33 -53 29 -56 -8 -61 8 -58 189
l3 153 41 3 c38 3 42 6 48 34 9 48 9 48 -44 48 l-50 0 0 60 0 60 -32 -1 c-18
-1 -43 -4 -55 -6z"/>
<path d="M9125 6943 c-68 -19 -110 -82 -103 -155 6 -63 33 -91 124 -133 79
-36 85 -42 86 -85 2 -67 -68 -90 -142 -49 l-39 22 -24 -29 c-30 -34 -25 -44
37 -73 28 -14 62 -21 103 -21 110 0 183 62 183 156 0 63 -32 102 -124 150 -43
22 -82 47 -87 55 -15 25 -10 57 13 73 29 21 59 20 104 -1 36 -17 36 -17 55 6
24 30 21 41 -19 64 -32 19 -130 31 -167 20z"/>
<path d="M9830 6928 c-79 -40 -112 -113 -111 -252 1 -166 69 -256 195 -256
129 0 201 95 200 265 0 103 -16 156 -61 205 -56 63 -144 77 -223 38z m145
-102 c17 -24 20 -43 20 -134 0 -113 -13 -165 -46 -182 -74 -40 -129 61 -115
214 8 81 22 116 55 132 30 15 59 5 86 -30z"/>
<path d="M10390 6937 c-13 -7 -34 -27 -46 -44 -25 -37 -34 -33 -34 14 l0 33
-50 0 -50 0 0 -255 0 -255 54 0 54 0 4 158 c3 131 6 163 22 192 24 44 44 59
78 60 29 0 35 11 40 75 3 25 -1 30 -22 33 -14 1 -36 -4 -50 -11z"/>
<path d="M10624 6931 c-73 -33 -114 -121 -114 -245 0 -128 43 -222 117 -252
55 -23 138 -18 194 13 27 14 49 29 49 32 0 3 -10 19 -23 34 l-22 28 -40 -21
c-76 -39 -134 -15 -154 64 -6 25 -11 50 -11 55 0 7 47 11 136 11 l137 0 -6 73
c-8 115 -45 184 -114 213 -44 19 -100 17 -149 -5z m116 -71 c20 -11 40 -66 40
-112 l0 -28 -80 0 c-88 0 -86 -2 -69 70 17 73 56 98 109 70z"/>
<path d="M5268 6913 c7 -3 16 -2 19 1 4 3 -2 6 -13 5 -11 0 -14 -3 -6 -6z"/>
<path d="M5218 6903 c6 -2 18 -2 25 0 6 3 1 5 -13 5 -14 0 -19 -2 -12 -5z"/>
<path d="M5100 6887 c-27 -6 -274 -10 -625 -11 l-580 -1 -57 -28 c-78 -38
-103 -75 -103 -153 0 -97 53 -193 174 -314 157 -157 358 -274 631 -364 222
-74 421 -106 657 -106 320 0 643 71 907 200 96 47 305 178 366 230 34 29 8 15
-65 -36 -562 -389 -1463 -407 -2016 -39 -212 141 -304 306 -226 408 58 76 183
112 527 152 251 29 502 64 509 71 7 7 -51 2 -99 -9z"/>
<path d="M2720 6820 c6 -11 13 -20 16 -20 2 0 0 9 -6 20 -6 11 -13 20 -16 20
-2 0 0 -9 6 -20z"/>
<path d="M3490 6125 c0 -2 23 -16 50 -30 28 -14 50 -23 50 -20 0 2 -22 16 -50
30 -27 14 -50 23 -50 20z"/>
<path d="M5558 5903 c6 -2 18 -2 25 0 6 3 1 5 -13 5 -14 0 -19 -2 -12 -5z"/>
</g>
</svg>
