<?xml version="1.0" standalone="no"?>
<!DOCTYPE svg PUBLIC "-//W3C//DTD SVG 20010904//EN"
 "http://www.w3.org/TR/2001/REC-SVG-20010904/DTD/svg10.dtd">
<svg version="1.0" xmlns="http://www.w3.org/2000/svg"
 width="1500.000000pt" height="515.000000pt" viewBox="0 0 1500.000000 515.000000"
 preserveAspectRatio="xMidYMid meet">

<g transform="translate(0.000000,515.000000) scale(0.100000,-0.100000)"
fill="#000000" stroke="none">
<path d="M3320 5143 c-14 -2 -58 -15 -98 -29 -80 -29 -101 -51 -84 -89 22 -48
91 -85 452 -241 714 -310 1225 -670 1683 -1184 66 -74 122 -137 125 -140 23
-25 -37 67 -103 156 -112 151 -240 296 -386 440 -254 248 -446 395 -874 667
-247 157 -367 238 -407 275 -57 53 -22 115 70 127 145 18 125 23 -108 22 -135
0 -256 -2 -270 -4z"/>
<path d="M2772 5109 c-485 -72 -834 -202 -1368 -507 -492 -282 -755 -496 -989
-808 -497 -660 -535 -1493 -103 -2226 29 -48 54 -86 55 -84 2 2 -13 32 -33 66
-342 583 -377 1267 -95 1828 121 240 353 497 526 583 132 65 198 62 235 -10
19 -38 41 -169 61 -356 24 -241 83 -495 158 -683 50 -127 140 -324 153 -337 8
-7 9 -4 3 10 -120 314 -161 529 -152 810 6 190 21 281 73 440 154 467 542 745
1124 804 130 14 417 14 551 1 249 -25 525 -85 777 -169 383 -128 751 -322
1285 -675 83 -55 -36 48 -203 175 -313 240 -690 456 -1020 587 -257 102 -548
186 -920 267 -253 54 -340 85 -340 119 0 27 50 73 107 99 32 14 110 39 173 56
132 34 117 37 -58 10z"/>
<path d="M4075 5093 c-49 -10 -76 -27 -81 -50 -15 -57 35 -110 318 -340 291
-236 392 -325 543 -477 314 -316 525 -624 676 -986 54 -129 62 -127 23 4 -77
268 -247 592 -437 836 -94 121 -178 214 -420 469 -269 282 -337 366 -337 416
0 47 21 59 114 65 l81 5 -180 33 c-166 29 -249 37 -300 25z"/>
<path d="M4707 4922 c-39 -43 -6 -118 134 -303 56 -74 153 -203 217 -288 304
-405 473 -760 538 -1131 17 -99 24 -384 10 -427 -4 -13 -3 -23 2 -23 12 0 42
261 42 360 -1 346 -130 725 -415 1210 -114 195 -194 349 -215 413 -10 32 -9
42 4 62 25 38 61 42 186 19 39 -7 -113 52 -232 91 -129 42 -242 49 -271 17z"/>
<path d="M5339 4669 c-18 -18 -21 -30 -17 -78 4 -54 23 -104 177 -479 98 -239
158 -439 187 -631 21 -142 21 -377 -1 -506 -33 -200 -125 -419 -241 -577 l-54
-73 54 59 c254 271 385 695 347 1117 -12 130 -36 254 -116 604 -25 110 -48
236 -52 281 -6 80 -5 81 23 103 36 28 84 24 169 -14 32 -14 60 -25 63 -25 8 0
-37 33 -118 87 -196 131 -368 185 -421 132z"/>
<path d="M2575 4504 c-393 -52 -728 -208 -941 -436 -257 -277 -378 -654 -344
-1078 7 -80 13 -146 14 -148 2 -1 6 61 10 138 28 595 297 1017 799 1255 269
127 510 177 852 178 431 1 787 -73 1374 -288 129 -47 236 -84 238 -82 5 6
-202 105 -360 173 -370 159 -741 259 -1096 294 -140 14 -424 11 -546 -6z"/>
<path d="M2810 4329 c-307 -33 -632 -143 -851 -289 -272 -179 -468 -440 -574
-763 -47 -143 -55 -207 -12 -92 78 208 196 400 335 547 194 203 410 336 707
433 376 124 757 144 1325 70 102 -14 208 -27 235 -30 l50 -5 -50 15 c-80 24
-389 83 -525 100 -147 19 -519 28 -640 14z"/>
<path d="M5937 4270 c-49 -38 -51 -65 -32 -388 25 -425 16 -604 -44 -839 -125
-487 -490 -894 -1046 -1167 -221 -109 -330 -148 -885 -315 -419 -126 -506
-156 -597 -207 -131 -73 -183 -141 -183 -239 0 -274 538 -559 1160 -615 593
-53 1184 96 1675 423 424 281 721 686 858 1172 29 104 61 255 54 261 -2 2 -12
-33 -22 -78 -107 -504 -409 -919 -878 -1211 -543 -337 -1308 -413 -1797 -180
-97 47 -203 148 -220 212 -21 79 9 150 98 232 87 81 166 130 477 294 309 163
501 275 639 373 526 375 812 833 895 1435 11 78 27 195 36 259 19 138 35 207
59 243 75 115 281 -24 456 -309 29 -47 55 -86 57 -86 8 0 -78 151 -135 239
-146 222 -320 392 -482 471 -96 46 -108 48 -143 20z"/>
<path d="M3065 4239 c-620 -47 -1105 -263 -1423 -634 -115 -134 -117 -141 -7
-29 122 124 199 187 335 277 299 197 650 311 1165 377 147 19 115 23 -70 9z"/>
<path d="M11950 3530 l0 -710 140 0 140 0 0 710 0 710 -140 0 -140 0 0 -710z"/>
<path d="M14218 4003 l-3 -158 -147 -3 -148 -3 0 -109 0 -110 150 0 150 0 0
-283 c0 -334 4 -352 84 -432 78 -78 114 -85 424 -85 l252 0 0 110 0 110 -192
0 c-164 0 -198 3 -228 18 -57 28 -60 41 -60 315 l0 247 215 0 215 0 0 110 0
110 -215 0 -215 0 0 160 0 160 -140 0 -139 0 -3 -157z"/>
<path d="M10640 3835 c-36 -8 -93 -28 -127 -45 -170 -84 -253 -234 -253 -460
0 -255 106 -414 323 -487 81 -27 86 -27 392 -31 353 -4 409 3 533 63 87 44
157 111 195 189 92 189 68 472 -52 617 -43 52 -127 106 -212 136 -74 27 -75
27 -404 30 -258 2 -344 -1 -395 -12z m654 -219 c100 -30 148 -93 167 -218 24
-155 -25 -286 -126 -338 -48 -25 -54 -25 -302 -28 -213 -3 -262 -1 -310 13
-111 32 -173 134 -173 283 0 156 53 247 168 288 54 19 511 19 576 0z"/>
<path d="M8131 3833 c-1 -7 -8 -10 -17 -6 -12 4 -14 0 -9 -23 l6 -29 -15 30
-15 30 4 -30 5 -30 -14 30 c-9 18 -15 23 -16 13 0 -9 -5 -20 -11 -24 -8 -4 -9
1 -4 17 4 17 3 20 -3 10 -8 -11 -11 -11 -16 0 -3 8 -3 4 0 -8 3 -13 3 -23 -1
-23 -3 0 -10 10 -15 23 -6 16 -9 17 -9 5 -1 -11 -8 -16 -21 -13 -12 2 -18 0
-15 -6 4 -5 11 -6 17 -3 8 5 9 1 4 -12 -5 -10 -8 -23 -7 -29 0 -5 3 -29 5 -51
4 -41 25 -94 26 -65 0 11 3 11 18 0 14 -11 15 -11 5 1 -7 8 -14 25 -14 40 -1
23 -2 23 -8 -5 -4 -20 -9 -25 -12 -15 -4 8 -2 26 3 40 9 24 10 24 23 6 8 -10
12 -23 9 -27 -3 -5 2 -19 10 -31 9 -13 16 -17 16 -9 0 9 4 10 13 4 6 -6 20 -9
29 -8 10 2 20 -1 24 -6 3 -5 25 -9 50 -9 25 0 59 -7 76 -16 16 -9 28 -11 24
-6 -3 5 1 18 8 28 10 13 11 24 4 37 -5 10 -7 25 -4 32 2 7 -2 19 -10 26 -13
10 -14 8 -10 -14 2 -15 2 -26 -2 -24 -4 1 -8 -2 -9 -8 -2 -5 1 -10 6 -10 18 0
22 -14 11 -35 -11 -20 -13 -20 -29 -6 -10 9 -21 13 -26 9 -4 -5 -5 -2 -1 5 10
17 -3 54 -16 46 -6 -4 -6 -10 0 -16 6 -6 8 -17 5 -25 -4 -11 -8 -10 -20 4 -11
14 -14 14 -10 3 3 -11 -2 -16 -18 -16 -19 0 -22 3 -14 17 6 11 5 20 -1 24 -6
3 -10 -4 -10 -16 0 -12 -2 -20 -5 -17 -7 6 -7 46 0 90 3 20 1 48 -5 63 -6 17
-7 24 0 20 6 -3 10 -14 11 -23 0 -14 2 -13 8 3 7 18 9 16 15 -12 4 -18 5 -36
2 -41 -2 -4 -1 -14 5 -22 13 -22 12 55 -2 83 -10 22 -10 22 7 2 14 -16 16 -17
11 -3 -4 10 -2 17 5 15 6 -1 13 5 15 13 4 13 3 13 -6 0 -10 -13 -11 -13 -11 0
0 13 -1 13 -10 0 -9 -13 -10 -13 -10 0 0 12 -2 13 -9 1 -7 -11 -9 -11 -14 0
-4 9 -6 10 -6 2z m-96 -48 c6 -1 15 3 21 7 16 12 28 -22 13 -36 -9 -8 -10 -7
-6 7 10 27 -1 20 -18 -13 -14 -28 -13 -34 7 -31 4 0 6 -12 4 -29 -2 -18 1 -27
7 -23 6 3 7 1 3 -6 -9 -15 -29 -3 -22 14 2 7 -2 22 -10 34 -11 15 -12 26 -4
40 16 30 11 39 -6 11 -14 -24 -15 -24 -11 -2 3 13 1 20 -5 16 -5 -3 -7 -17 -4
-29 3 -14 1 -27 -6 -31 -6 -4 -8 -3 -5 2 3 6 2 16 -3 24 -11 17 9 62 24 52 6
-4 16 -7 21 -7z m54 -49 c-9 -8 -10 -8 -4 3 5 9 4 12 -3 7 -8 -4 -9 -14 -4
-24 11 -21 15 -88 5 -79 -7 8 -12 26 -16 62 -2 11 -8 19 -15 18 -6 -2 -9 4 -6
12 4 8 10 12 15 10 4 -3 14 4 21 15 11 17 14 18 16 4 2 -9 -2 -21 -9 -28z m26
2 c-3 -24 -5 -56 -5 -72 1 -42 -8 -29 -14 21 -3 24 -1 45 5 48 5 4 9 15 9 26
0 10 2 19 6 19 3 0 2 -19 -1 -42z"/>
<path d="M8196 3809 c-9 -15 -16 -42 -16 -61 0 -46 -15 -68 -26 -37 -4 13 -6
35 -5 49 2 14 0 23 -3 20 -3 -3 -7 -22 -9 -41 -2 -20 -8 -42 -12 -50 -5 -8 -5
-11 0 -7 13 12 34 -11 29 -30 -5 -14 -3 -14 6 1 10 15 14 16 28 6 14 -11 15
-11 5 1 -10 11 -10 17 2 30 19 21 27 58 14 65 -5 4 -9 -4 -9 -17 0 -13 -5 -30
-10 -38 -8 -11 -9 -9 -5 10 3 14 7 40 9 58 2 18 7 36 11 40 4 4 4 -4 0 -18 -5
-19 -4 -22 5 -14 6 6 13 19 14 29 1 10 10 19 19 21 9 1 15 -1 14 -6 -1 -4 3
-7 8 -6 6 0 9 4 8 8 -1 3 5 5 15 3 11 -1 16 -10 15 -24 -2 -15 1 -20 10 -15 6
4 4 -2 -6 -13 -11 -12 -14 -24 -9 -27 11 -7 11 -24 -1 -44 -11 -17 2 -54 16
-46 7 4 9 4 5 -1 -4 -4 -2 -15 5 -24 10 -14 10 -14 -5 -3 -14 11 -18 11 -26
-5 -5 -10 -7 -29 -4 -43 3 -14 7 -190 9 -392 l3 -368 146 0 146 0 -5 393 c-3
262 -8 404 -16 429 -22 69 -73 131 -136 163 -50 26 -70 30 -140 31 -80 1 -83
0 -99 -27z m195 -26 c13 -16 12 -17 -3 -4 -10 7 -18 15 -18 17 0 8 8 3 21 -13z
m-219 -97 c7 4 8 2 4 -5 -9 -14 -36 3 -36 23 0 6 5 3 11 -7 6 -9 15 -14 21
-11z m145 -1 c0 -8 -4 -12 -9 -9 -5 3 -6 10 -3 15 9 13 12 11 12 -6z m28 -4
c3 -5 2 -12 -3 -15 -5 -3 -9 1 -9 9 0 17 3 19 12 6z m-32 -81 c3 -11 2 -22 -2
-24 -4 -3 -8 6 -9 20 -2 29 4 31 11 4z m28 -97 c13 -16 12 -17 -3 -4 -10 7
-18 15 -18 17 0 8 8 3 21 -13z m14 -602 c3 -5 2 -12 -3 -15 -5 -3 -9 1 -9 9 0
17 3 19 12 6z"/>
<path d="M8800 3105 l0 -735 145 0 145 0 0 224 0 224 308 4 c336 5 357 8 474
70 163 86 248 262 234 480 -16 244 -135 388 -372 448 -71 18 -112 20 -506 20
l-428 0 0 -735z m844 501 c61 -19 111 -58 136 -105 28 -56 42 -159 31 -229
-18 -111 -53 -166 -128 -203 -46 -23 -57 -24 -320 -27 l-273 -3 0 290 0 291
253 0 c190 0 266 -4 301 -14z"/>
<path d="M12530 3730 l0 -110 439 0 c295 0 448 -4 470 -11 39 -14 60 -53 64
-116 l2 -48 -445 -5 c-438 -5 -446 -5 -495 -28 -65 -30 -108 -73 -137 -136
-33 -73 -33 -219 0 -291 30 -65 73 -108 136 -137 l51 -23 588 -3 588 -3 -4
403 c-2 285 -7 414 -15 440 -20 58 -72 119 -127 147 l-50 26 -532 3 -533 3 0
-111z m975 -600 l0 -85 -355 -3 c-195 -1 -370 0 -387 3 -61 11 -85 104 -38
151 l24 24 378 -2 378 -3 0 -85z"/>
<path d="M7883 3815 c0 -8 4 -12 9 -9 5 3 6 10 3 15 -9 13 -12 11 -12 -6z"/>
<path d="M7939 3825 c-1 -3 -2 -8 -3 -12 -1 -5 -5 -13 -9 -20 -4 -6 -3 -15 3
-18 6 -4 10 -3 9 2 -1 4 0 10 1 13 5 13 8 40 4 40 -2 0 -5 -2 -5 -5z"/>
<path d="M8233 3816 c4 -5 0 -20 -8 -32 -8 -13 -11 -25 -6 -29 9 -5 9 -20 0
-50 -4 -13 10 -56 24 -73 8 -11 12 -11 18 0 14 22 10 31 -8 17 -10 -8 -14 -9
-10 -2 4 6 2 15 -3 18 -8 5 -6 13 4 24 9 10 13 20 10 24 -3 3 -2 12 2 19 17
27 14 55 -8 74 -13 10 -20 15 -15 10z m19 -48 c-6 -6 -8 -18 -5 -27 4 -13 3
-13 -5 -2 -8 11 -9 24 -3 49 1 2 6 0 12 -4 7 -4 7 -10 1 -16z m-7 -57 c3 -5 2
-12 -3 -15 -5 -3 -9 1 -9 9 0 17 3 19 12 6z"/>
<path d="M8284 3808 c-12 -20 -11 -78 2 -89 13 -11 14 7 1 27 -3 6 -4 14 0 18
7 7 14 56 8 56 -2 0 -7 -5 -11 -12z"/>
<path d="M7952 3785 c4 -4 3 -14 -2 -20 -7 -9 -5 -17 7 -26 16 -12 17 -12 6 2
-9 11 -9 19 -2 26 8 8 7 13 -3 18 -7 5 -10 5 -6 0z"/>
<path d="M7909 3767 c6 -8 7 -18 3 -22 -4 -5 -1 -5 6 -1 10 6 10 11 1 22 -6 8
-14 14 -16 14 -3 0 0 -6 6 -13z"/>
<path d="M7884 3745 c1 -14 8 -30 16 -37 12 -11 12 -10 3 2 -6 8 -9 23 -8 32
2 10 0 20 -4 23 -4 2 -7 -7 -7 -20z"/>
<path d="M7918 3718 c9 -12 10 -18 2 -23 -8 -5 -7 -12 4 -24 9 -10 13 -21 9
-26 -5 -4 -2 -5 5 -1 11 7 10 11 -2 25 -11 12 -12 21 -5 28 7 7 4 14 -8 24
-16 13 -17 12 -5 -3z"/>
<path d="M7884 3686 c1 -8 5 -18 8 -22 4 -3 5 1 4 10 -1 8 -5 18 -8 22 -4 3
-5 -1 -4 -10z"/>
<path d="M7965 3690 c-4 -6 -12 -7 -18 -3 -7 3 -4 -2 5 -13 14 -16 15 -23 5
-34 -10 -12 -9 -12 6 -1 12 10 14 17 7 26 -6 8 -6 15 2 23 7 7 9 12 6 12 -4 0
-10 -5 -13 -10z"/>
<path d="M7905 3651 c-3 -5 -2 -12 3 -15 5 -3 9 1 9 9 0 17 -3 19 -12 6z"/>
<path d="M559 3513 c-147 -73 -319 -327 -388 -573 -41 -150 -54 -257 -54 -445
-1 -315 58 -557 208 -856 210 -420 535 -766 965 -1031 103 -64 352 -199 357
-194 2 2 -47 32 -109 67 -321 178 -635 436 -833 684 -158 196 -320 486 -389
695 -56 170 -77 285 -83 470 -10 320 54 546 197 704 65 70 123 99 201 98 122
-2 193 -58 530 -418 123 -131 264 -279 313 -329 96 -97 93 -92 -71 123 -102
135 -135 188 -341 557 -187 335 -250 428 -313 460 -46 24 -127 19 -190 -12z"/>
<path d="M6425 3509 c-42 -37 -86 -126 -153 -309 -124 -336 -250 -568 -452
-830 -82 -105 -297 -325 -520 -529 -312 -286 -418 -440 -367 -537 40 -77 112
-115 270 -145 114 -21 129 -22 246 -10 361 36 680 185 937 438 257 253 408
533 459 848 8 49 15 155 15 235 0 349 -87 636 -243 798 -78 81 -133 93 -192
41z"/>
<path d="M615 2746 c-227 -106 -291 -534 -145 -969 115 -339 369 -701 680
-967 411 -351 895 -586 1440 -699 138 -28 416 -71 463 -71 43 0 7 9 -118 30
-182 30 -424 90 -598 150 -753 256 -1387 799 -1616 1385 -70 177 -85 252 -86
410 0 168 20 244 86 318 58 66 115 91 208 90 136 -2 219 -34 644 -248 213
-108 387 -193 387 -191 0 3 -13 12 -28 20 -15 8 -206 145 -424 304 -453 332
-491 358 -573 400 -132 66 -234 78 -320 38z"/>
<path d="M1123 2104 c-61 -22 -126 -84 -153 -146 -34 -77 -39 -206 -11 -321
56 -234 239 -529 460 -740 166 -159 408 -335 619 -451 499 -274 1123 -421
1717 -403 279 8 472 37 884 133 13 3 21 7 18 10 -3 3 -58 -6 -123 -20 -255
-53 -337 -61 -679 -61 -334 0 -409 7 -665 56 -474 91 -957 306 -1300 579 -103
82 -277 260 -345 352 -136 185 -194 328 -195 481 0 83 18 129 73 185 61 62
125 83 272 89 131 5 137 4 709 -98 153 -27 283 -48 288 -47 5 2 -53 21 -129
42 -76 21 -345 107 -598 192 -253 84 -498 160 -544 168 -103 20 -242 19 -298
0z"/>
<path d="M10500 1903 c-14 -2 -40 -6 -57 -9 l-33 -5 0 -84 0 -85 -45 0 -45 0
0 -60 0 -60 45 0 45 0 0 -230 c0 -127 5 -252 11 -280 26 -121 138 -176 276
-135 74 22 80 34 47 94 -24 42 -31 48 -47 40 -10 -6 -34 -9 -55 -7 -58 5 -62
20 -62 286 l0 232 65 0 64 0 6 38 c3 20 8 47 11 60 4 21 2 22 -71 22 l-75 0 0
95 0 95 -27 -1 c-16 -1 -39 -3 -53 -6z"/>
<path d="M9929 1726 c-59 -21 -96 -53 -123 -108 -46 -93 -27 -193 49 -256 21
-17 69 -44 108 -59 38 -15 85 -42 104 -58 30 -26 36 -37 36 -73 0 -108 -105
-140 -226 -69 l-44 26 -42 -43 -42 -43 36 -27 c52 -40 116 -65 182 -72 160
-17 292 68 308 200 15 121 -35 191 -191 266 -110 52 -134 76 -134 128 0 79 85
105 188 57 30 -14 55 -25 57 -25 1 0 15 19 30 42 l28 42 -32 27 c-64 53 -207
76 -292 45z"/>
<path d="M11026 1725 c-130 -46 -196 -173 -196 -379 0 -131 17 -210 62 -279
89 -139 290 -169 416 -62 158 136 161 545 5 674 -70 58 -197 78 -287 46z m175
-141 c34 -31 44 -83 44 -239 0 -122 -3 -159 -18 -198 -44 -114 -173 -99 -208
24 -17 60 -17 271 -1 336 15 56 50 100 85 105 30 5 76 -8 98 -28z"/>
<path d="M11845 1728 c-37 -20 -73 -59 -91 -100 -18 -39 -19 -40 -25 -17 -4
13 -7 43 -8 67 l-1 42 -75 0 -75 0 0 -380 0 -380 85 0 85 0 0 218 c0 245 9
297 61 357 28 31 37 35 80 35 48 0 48 0 55 38 3 20 10 55 14 77 6 28 5 42 -3
47 -18 11 -79 9 -102 -4z"/>
<path d="M12212 1728 c-50 -17 -118 -83 -145 -141 -38 -78 -50 -161 -45 -289
8 -176 54 -270 162 -325 43 -23 64 -27 136 -28 92 0 128 10 198 58 l43 29 -18
27 c-49 75 -51 76 -71 58 -53 -48 -154 -61 -210 -27 -39 24 -59 67 -68 144
l-7 56 196 0 197 0 6 26 c9 35 -3 161 -21 221 -22 74 -67 138 -121 169 -38 22
-61 28 -123 30 -42 2 -91 -2 -109 -8z m165 -134 c27 -29 43 -83 43 -146 l0
-48 -115 0 -115 0 0 30 c0 55 22 131 46 160 39 45 101 47 141 4z"/>
<path d="M4238 1703 c7 -3 16 -2 19 1 4 3 -2 6 -13 5 -11 0 -14 -3 -6 -6z"/>
<path d="M2718 1693 c7 -3 16 -2 19 1 4 3 -2 6 -13 5 -11 0 -14 -3 -6 -6z"/>
<path d="M4045 1674 c-262 -46 -323 -49 -800 -45 -247 3 -601 5 -785 5 -326 1
-337 0 -403 -22 -100 -35 -156 -77 -190 -142 -26 -49 -28 -63 -25 -125 17
-256 315 -582 742 -809 279 -149 655 -273 972 -321 343 -51 754 -44 1103 20
323 60 686 196 961 361 96 58 290 192 345 240 41 35 15 20 -75 -41 -357 -247
-765 -397 -1249 -462 -176 -23 -561 -23 -731 0 -185 26 -350 61 -500 107 -532
164 -960 499 -960 753 0 191 170 280 640 337 715 86 856 107 1070 154 99 22
31 16 -115 -10z"/>
</g>
</svg>
