<svg xmlns="http://www.w3.org/2000/svg" width="2000" height="2000" version="1.0" viewBox="0 0 1500 1500">
  <path d="M467.5 579.4c-14.6 4.6-11.6 8.2 17.5 21.1 53.7 23.7 85.4 45.8 118.5 82.5 8 8.9 7.6 7.8-1.9-5-16.3-22.1-46.8-49.1-76.6-68-22.2-14.1-34-22.3-34.6-24.2-.9-3.1 1.9-5.2 8.9-6.4 5.7-1.1 4.9-1.2-10.8-1.2-11 0-18.4.4-21 1.2z"/>
  <path d="M423.5 582.6c-26.2 5-54.7 16.8-87.3 36.3-20.3 12.2-32.5 21.6-45.3 34.9-22.7 23.5-35.5 49.5-39 79.5-2 17.2.7 40.2 6.7 56.9 2.8 7.7 11.2 25 13.8 28.3.8 1.1-.9-2.9-3.9-8.9-9.8-19.8-14.5-38.8-14.5-59.1 0-25.1 6.8-47.8 20.2-67.2 7-10.2 20.4-22.7 28.1-26.4 7-3.3 9.3-3.6 12.4-1.4 2.9 2 4 6.2 5.9 22.5 2.9 25.6 7.2 41.7 16 60.7 2.4 5.3 4.2 9.8 4 10-.6.6-7.4-10.5-18.6-30.7-12.1-21.7-14.6-25.6-19.5-29.8-4.8-4.3-9.3-4.3-16.5 0-12.7 7.7-23.9 28.5-26.9 50.3-7 50.3 20.2 103.8 69.9 137.3 9.1 6.1 31.1 18.4 31.7 17.8.3-.3-2.2-1.8-5.5-3.5-9.4-4.7-28.8-18.2-38.2-26.5-37.5-33-57-79.9-49.5-119.3 2.8-15 12.2-29.1 20.9-31.4 9.7-2.6 15.6 1.7 43.7 31.9 11.8 12.7 21.5 22.9 21.7 22.7.2-.2-2.6-4.2-6.2-8.8-3.6-4.6-6.3-8.7-5.9-9 .3-.4-.5-3.5-1.7-6.9-2-5.3-2.3-7.9-2.1-16.8.2-7 .7-11 1.6-12 .7-.8 2.5-4.7 4-8.5 3.2-8.1 8.5-17.9 9.3-17.1.3.3 4.6-3.4 9.6-8.2 11-10.7 21.3-17.7 36-24.8 16.3-7.8 31.9-11.8 66.1-16.8 1.7-.2-1.7-.2-7.5.1-22 1-45 6.7-62.2 15.3-12.2 6.1-22 13.4-32.3 24.1-5.2 5.5-9.5 9.6-9.5 9.2 0-.5 2.3-3.8 5-7.5 15.7-20.8 42.9-36 74.8-41.5 13.3-2.3 45.1-2.3 62.2.1 6.9.9 14.8 1.9 17.5 2.1 4.6.4 4.4.3-2.5-1.5-18.8-4.8-32.6-6.4-55-6.5-19 0-22.7.3-31.9 2.3-41.5 9.3-67.9 31.5-80.4 67.7-3.1 9-3.7 10.1-3.1 6 1.5-12.3 8.3-29.6 15.7-40.5 17.1-24.9 53.4-41 92.3-41 27.4 0 53.8 5.5 90.8 18.9 9.3 3.4 17 6 17.3 5.8.2-.2-3.8-2.3-8.9-4.7-41-19.1-71.9-27-105.1-27-54.1 0-90.9 24.2-102.9 67.5-1.9 6.9-2.2 10.6-2.3 26.4v18.4l-1.9-7.4c-1.5-5.9-1.9-11.1-2-26.4 0-18 .1-19.5 2.7-28 7.3-23.7 19.2-38.3 39.2-48.2 33.4-16.6 88.7-14.2 139 6 19.2 7.7 42.7 20.5 64 34.7 14.1 9.4 10.2 5.3-8-8.5-25.4-19.1-50.5-32.4-80-42.4-13.1-4.5-19.6-6.2-53-14.1-13.8-3.3-17.1-5-15.4-8.1 1.3-2.5 5.8-4.8 14.9-7.5 10.3-3.1 4.6-3-12.5.2z"/>
  <path d="M521.4 581.9c-10 2.5-7.2 6.8 17.3 26.8 26.8 21.8 39.2 33.7 53.6 51.6 10.3 12.8 22.1 33.2 27.3 47.1 2.5 6.8 3 4.1.6-3.6-6.4-20.5-17.2-40-32.7-59.3-4-4.9-14.8-16.9-24-26.5-17.4-18.2-22.5-24.5-22.5-27.9 0-2.6 2.8-4.1 8.2-4.2 3.6-.1 2.9-.4-4.7-2-11.6-2.3-19.2-3-23.1-2z"/>
  <path d="M563.7 592.7c-1.4 1.3-.6 5.9 1.7 9.9 1.3 2.3 8.1 11.7 15.1 21 15.2 20 21.7 29.8 28.1 42.5 11.3 22.7 15.2 37.9 15.5 61.1l.2 14.6-4.2 7.8c-2.3 4.2-5.6 9.6-7.3 11.8-3.1 4-3.1 4-.4 1.6 3.8-3.4 13-17.3 16.2-24.6 3.8-8.6 7.2-22.7 7.9-33.5.9-12.8-.6-24.8-6.5-51.2-5.1-22.9-5.9-29.4-3.8-31.5 1.8-1.8 6.7-1.4 11.6.8 2.3 1 4.2 1.7 4.2 1.4 0-.8-16.4-11.1-20.5-12.8-6.2-2.6-11.5-3.6-14.1-2.5-4.3 1.6-3.3 7.2 4.7 26.8 14.2 34.9 17.9 49.5 17.9 70.2 0 11.3-1.8 24-4.1 29.2-.7 1.7-.8 1.1-.4-2.3 2.5-22 1.1-36.5-5.5-56.3-4.4-13.2-10.9-26.7-22-45.7-13.3-22.8-15.5-29.1-10.5-31 1.4-.5 3-.8 3.7-.6.7.3 2.9.7 4.8 1 5.1.8 2.1-.7-9.8-4.8-9.9-3.4-20.6-4.8-22.5-2.9z"/>
  <path d="M645.5 637.4c-3 3-3.1 5.8-1.4 32.7 1.4 20.6.4 33.9-3.6 48.9-8.6 32-32.1 58.3-68.5 76.5-13.9 7-27 11.6-60 21.5-36.3 10.8-46.7 15.7-50.4 23.5-3.5 7.4-1.1 14 8.2 22.7 10.1 9.3 27.8 17.3 49 22.1 8.5 1.9 12.7 2.1 34.2 2.1 21.8 0 25.7-.2 35-2.2 31.2-6.8 59.8-21.4 80.4-41.2 19.4-18.6 30.4-37 38-63.2 1.3-4.5 2.6-10.3 3-12.8.3-2.5-.5-.4-1.8 4.7-8.4 31.9-25.5 55.6-54.1 74.7-22.4 15.1-49.5 23-78.5 23-21.2 0-37-3.6-48.5-10.9-13.6-8.6-14.8-17.5-3.8-27.5 6-5.5 10.7-8.4 35.8-21.7 37.6-19.9 57.3-34.8 72.3-54.9 15.3-20.5 22.3-39.2 26.7-72.2 2.4-18.2 3.8-23.6 6.9-26.1 4.7-3.9 17.2 5.6 26.8 20.4 6.8 10.4 7.6 10.5 1.6.2-12-20.8-29.6-38.1-42.5-42.1-1.7-.5-2.9-.1-4.8 1.8zM740 686v48h19l.2-26.8.3-26.7 19.1-.3c18.1-.2 19.2-.1 21.7 1.9l2.7 2v50l9.8-.3 9.7-.3.3-24c.3-26.1-.4-32-4.4-37.2-4.9-6.5-6.2-6.7-33.9-7.3l-25-.5-.3-13.3-.3-13.2H740v48zm306 0v48h19v-96h-19v48zm151-31.5V665h-20v15h20v18.4c0 23.7 1.7 28.7 10.9 33 4 1.8 6.9 2.1 22.4 2.4l17.7.4V718h-13.4c-18.9 0-18.1 1-18.1-20.7v-16.8l14.3-.3 14.2-.3v-14.8l-14.2-.3-14.3-.3-.3-10.3-.3-10.2H1197v10.5zM960.3 665c-11.9 2.4-21.5 10.2-24.9 20.3-2.1 6.1-2.4 20.1-.6 26.3 2.9 9.9 11 17.6 22.1 20.8 7.4 2.2 45 2.3 52.9.2 16.7-4.5 25.1-17.2 23.9-36.3-1-17.2-9.9-27.7-26.5-31.2-6-1.3-40.5-1.3-46.9-.1zm44 16.1c4.7 2.4 7.6 6.2 8.8 11.4 1.4 6.4.5 15-2.1 19.3-3.5 5.7-6.7 6.6-23.9 7-18.6.5-23.2-.1-27.1-3.5-4.7-3.9-6.2-7.8-6.3-15.8 0-8.6 2.2-13.9 7.2-17.2 3.2-2.2 4.3-2.3 22.3-2.3 12 0 19.7.4 21.1 1.1zM837 714.4V764h19v-30h15.8c25.6-.1 33.9-2 42.5-9.9 7-6.5 9.2-12.5 9.2-25.1 0-9.5-.3-11.1-2.8-16.2-3.3-6.7-8-11.1-15.7-14.7l-5.5-2.6-31.2-.3-31.3-.3v49.5zm59-31.9c5.5 3.3 7.5 7.7 7.5 16.5 0 8.3-1.8 12.6-6.8 16.4-2.6 1.9-4.4 2.1-21.8 2.4l-18.9.3v-38.3l18.3.4c16.1.3 18.6.5 21.7 2.3zm189-10v7.4l30.5.3c33.8.3 33 .2 34.2 7l.5 3.6-29.3.4c-28.6.3-29.5.4-34.2 2.7-3 1.5-5.8 3.8-7.5 6.4-2.4 3.6-2.7 5-2.7 12.2 0 7.3.3 8.6 2.8 12.4 1.9 2.8 4.4 5 7.5 6.4 4.5 2.1 6.2 2.2 43.5 2.5l38.7.3v-27.3c0-24.3-.2-27.7-1.9-31.3-2.2-4.8-4.4-6.9-9.4-9-3-1.2-9.4-1.5-38.2-1.5H1085v7.5zm65 40v5.5h-25.3c-18.3 0-25.6-.3-26.5-1.2-.7-.7-1.2-2.6-1.2-4.3 0-1.7.5-3.6 1.2-4.3.9-.9 8.2-1.2 26.5-1.2h25.3v5.5z"/>
  <path d="M677.5 688.5c-1.8 1.9-4.5 6.7-6.1 10.7-16.2 42.8-26.7 59.5-53 84.8-27.4 26.4-32.9 32-36.5 37.4-4.2 6.3-4.7 9.1-2.4 13.6 2.1 4 7 6.7 15.4 8.5 9.1 1.9 15.6 1.9 26.2 0 39.6-6.9 73.4-37.8 83.6-76.2 5-19.1 3-47.9-4.5-63.6-5.4-11.3-12.3-18.7-17.6-18.7-1 0-3.3 1.6-5.1 3.5zM293.7 737c-12.4 3.9-19.4 22.8-16.8 44.9 3 24.4 16.3 50.6 36.8 72.1 31.8 33.5 73.8 54.8 122.8 62 7.2 1.1 14.3 2.2 16 2.5 1.7.3 2.5.2 2-.3-.6-.5-4.6-1.5-9-2.1-29.6-4.5-62.8-17.1-86.2-32.7-43.3-29-69.7-69.8-66.2-102.7.8-7.9 4-14.9 8.1-17.9 2-1.3 5.1-2.3 8.5-2.6 10-.8 16.2 1.3 44.3 15.5 14.6 7.3 26.6 13.3 26.8 13.3.2 0-6.1-4.6-14-10.3-7.9-5.7-22.1-16-31.7-23-23.1-16.9-33-21.4-41.4-18.7z"/>
  <path d="M322.7 782c-5.9 3.3-8.9 8.7-9.5 17.3-.5 9.1 1.5 17.3 7.4 29 7.7 15.5 17.3 27.4 32.7 40.3 31.2 26.2 68.7 42.2 112.2 47.9 13.8 1.8 41.9 2 54.5.5 10.9-1.4 38-6.9 40-8.1 1.2-.8 1.1-.9-.5-.5-24.1 5.8-56.3 7.4-82.3 4.1-53.6-6.9-103.9-34.2-127-68.9-6.1-9.3-9.4-18.4-9.6-26.6-.1-8.3 2.4-12.9 9.2-16.2 4.1-2 6.2-2.3 16.2-2.3 9.3 0 16.5 1 37.9 4.8 25.1 4.6 33.2 5.6 21.8 2.8-2.8-.8-21.6-6.8-41.7-13.4-35.8-11.8-36.7-12-47-12.4-9.1-.3-11-.1-14.3 1.7zm626.8 12-5 .5-.3 5.7c-.3 5.7-.4 5.8-3.2 5.8-2.9 0-3 .2-3 4.5s.1 4.5 3 4.5h3v17.2c0 15.4.2 17.7 2 20.5 3.1 5.1 9.1 7.2 15.7 5.4 6.6-1.9 7.1-2.5 4.9-6.5-1.7-3.1-2.2-3.4-6-3.3l-4.1.2-.3-16.8-.2-16.7h3.9c4.1 0 5.1-1.3 5.1-6.8 0-2-.5-2.2-4.5-2.2H956v-5.9c0-3.3-.3-6.1-.7-6.3-.5-.2-3-.1-5.8.2zm-40.1 12.8c-5.3 3.4-7.4 6.9-7.4 12.6 0 7.4 2.4 10.7 10.7 14.6 3.7 1.8 7.6 3.9 8.6 4.8 2.5 2.2 2.2 7.7-.5 9.6-3.1 2.2-5.7 2-11.1-.7l-4.6-2.4-2.7 2.8c-2.3 2.4-2.5 3.1-1.4 4.4 2.8 3.3 9.3 5.8 15.5 5.9 11.4.1 18.5-6 18.5-15.8 0-7.6-2.4-10.8-11.5-15.1-8.6-4.2-11.1-6.9-9.6-10.7.5-1.4 2-2.8 3.4-3.2 2.7-.6 8.1.7 10.4 2.6 1.2 1 1.8.9 3-.7 3.5-4.7 3.5-5.2-.5-7.7-5.2-3.2-16.4-3.7-20.8-1zm73.1.1c-8 4.8-11 11.7-11 25.1 0 8.1.4 10.3 2.7 15.2 3.7 7.9 8.7 11.2 17.3 11.2 5.2 0 7.1-.5 10.5-2.8 5.6-3.7 9.2-11.4 9.8-21.1.8-13.5-3.1-23.6-10.8-27.5-5.2-2.6-14.3-2.7-18.5-.1zm14.2 9.8c2.2 3.3 3.2 12.8 2.2 21.6-.8 8.4-2.8 10.9-7.8 10.5-5.4-.4-7.1-4.6-7.1-17 0-13.6 1.9-17.8 8.2-17.8 1.9 0 3.3.8 4.5 2.7zm40.9-10.2c-1.1.8-2.7 2.7-3.7 4.1l-1.7 2.7-.7-3.6c-.7-3.7-.8-3.7-5.6-3.7h-4.9v51h12v-14.6c0-20.1 2-25.8 9-25.6 3.6.1 3.6.1 4.5-6.6l.7-5.2h-3.9c-2.1 0-4.7.7-5.7 1.5zm23.4.7c-7.3 4.9-10.3 12.5-10.2 25.3.1 12.7 3.1 19.4 10.7 23.7 5.3 3 14.3 3 20.2 0 5.5-2.9 5.8-3.6 3.3-7.7l-2.1-3.4-3.2 1.9c-3.4 2.1-9.7 2.6-12.7 1-2.1-1.1-4-6-4-10.1V835h26.3l-.5-7.8c-.8-14.8-6.2-21.4-17.8-22-5.5-.3-7 0-10 2zm13.9 8.4c1.5 1.9 2.1 4.1 2.1 7.5v4.9h-14v-3.4c0-9.9 7-15.2 11.9-9zm-543.1-7.9c.6.2 1.8.2 2.5 0 .6-.3.1-.5-1.3-.5-1.4 0-1.9.2-1.2.5zm-5 1c.6.2 1.8.2 2.5 0 .6-.3.1-.5-1.3-.5-1.4 0-1.9.2-1.2.5z"/>
  <path d="M512.5 810.6c-12.4 2-39.8 2.6-77.3 1.7-18.9-.5-37.1-.6-40.3-.2-7.1.8-16.5 5.3-19.2 9.1-4.8 6.6-2.6 18.6 5.6 30.1C400 877.4 438.9 898 486 906.7c13.8 2.5 52.2 2.5 67.5 0 23.4-4 44.4-10.8 62.5-20.3 8.9-4.7 25.3-15.5 30.5-19.9 3.9-3.4 1.8-2.3-7.3 3.8-47.5 31.8-118.8 38.8-173.7 17-41.9-16.6-64.3-46-44.7-58.7 8.4-5.5 16.3-7.1 61.2-12.6 14-1.7 29.6-3.9 34.5-4.9 10.4-2.1 7.8-2.4-4-.5z"/>
</svg>